{"title":"Jaan_1996_DVDrip_Xvid_dj.furqan.TPB","uid":6147881,"size":1557356144,"categoryP":"video","categoryS":"movies","magnet":"?xt=urn:btih:307379ba933714d46ed3228d2d58a67a0f16d9fe&amp;dn=Jaan_1996_DVDrip_Xvid_dj.furqan.TPB&amp;tr=udp%3A%2F%2Ftracker.openbittorrent.com%3A80&amp;tr=udp%3A%2F%2Fopen.demonii.com%3A1337&amp;tr=udp%3A%2F%2Ftracker.coppersurfer.tk%3A6969&amp;tr=udp%3A%2F%2Fexodus.desync.com%3A6969","seeders":2,"leechers":2,"uploader":"jin_kazama6","files":1,"time":1296760329,"description":"General\nComplete name                    : D:\\indians movie\\Jaan.1996.DVDrip.Xvid.dj.furqan\\Jaan.1996.DVDrip.Xvid.dj.furqan.avi\nFormat                           : AVI\nFormat/Info                      : Audio Video Interleave\nFormat profile                   : OpenDML\nFile size                        : 1.45 GiB\nDuration                         : 2h 43mn\nOverall bit rate                 : 1 269 Kbps\nWriting application              : AVI-Mux GUI 1.17.7, Aug  8 2006  20:59:17\n\nVideo\nID                               : 0\nFormat                           : MPEG-4 Visual\nFormat profile                   : Advanced Simple@L5\nFormat settings, BVOP            : Yes\nFormat settings, QPel            : No\nFormat settings, GMC             : No warppoints\nFormat settings, Matrix          : Default (H.263)\nCodec ID                         : XVID\nCodec ID/Hint                    : XviD\nDuration                         : 2h 43mn\nBit rate                         : 1 071 Kbps\nWidth                            : 656 pixels\nHeight                           : 288 pixels\nDisplay aspect ratio             : 2.25:1\nFrame rate                       : 29.970 fps\nColor space                      : YUV\nChroma subsampling               : 4:2:0\nBit depth                        : 8 bits\nScan type                        : Progressive\nBits/(Pixel*Frame)               : 0.189\nStream size                      : 1.22 GiB (84%)\nWriting library                  : XviD 1.2.1 (UTC 2008-12-04)\n\nAudio\nID                               : 1\nFormat                           : AC-3\nFormat/Info                      : Audio Coding 3\nMode extension                   : CM (complete main)\nCodec ID                         : 2000\nDuration                         : 2h 43mn\nBit rate mode                    : Constant\nBit rate                         : 192 Kbps\nChannel(s)                       : 2 channels\nChannel positions                : Front: L R\nSampling rate                    : 48.0 KHz\nBit depth                        : 16 bits\nStream size                      : 225 MiB (15%)\nAlignment                        : Aligned on interleaves\nInterleave, duration             : 64 ms (1.92 video frames)\nInterleave, preload duration     : 192 ms\nTitle                            : jaan movie T80 2_0ch 192Kbps DELAY 0ms\n\n","torrent":{"xt":"urn:btih:307379ba933714d46ed3228d2d58a67a0f16d9fe","amp;dn":"Jaan_1996_DVDrip_Xvid_dj.furqan.TPB","amp;tr":["udp%3A%2F%2Ftracker.openbittorrent.com%3A80","udp%3A%2F%2Fopen.demonii.com%3A1337","udp%3A%2F%2Ftracker.coppersurfer.tk%3A6969","udp%3A%2F%2Fexodus.desync.com%3A6969"],"infoHash":"307379ba933714d46ed3228d2d58a67a0f16d9fe","infoHashBuffer":{"type":"Buffer","data":[48,115,121,186,147,55,20,212,110,211,34,141,45,88,166,122,15,22,217,254]},"announce":[],"urlList":[]}}